<svg xmlns="http://www.w3.org/2000/svg" viewBox="0 0 320 320" role="img" aria-labelledby="raeTitle raeDesc">
  <title id="raeTitle">Rae</title>
  <desc id="raeDesc">BRAYRO AI studio concierge signal mark</desc>
  <defs>
    <linearGradient id="shell" x1=".12" y1=".08" x2=".9" y2=".92"><stop stop-color="#f8f4ec"/><stop offset=".48" stop-color="#cfc6b8"/><stop offset="1" stop-color="#8f8579"/></linearGradient>
    <linearGradient id="glass" x1=".12" x2=".88" y2="1"><stop stop-color="#252a31"/><stop offset=".45" stop-color="#0d1015"/><stop offset="1" stop-color="#050609"/></linearGradient>
    <linearGradient id="signal"><stop stop-color="#ff5a1f" stop-opacity=".14"/><stop offset=".36" stop-color="#ff7a2d"/><stop offset=".64" stop-color="#ffc078"/><stop offset="1" stop-color="#ff5a1f" stop-opacity=".14"/></linearGradient>
    <radialGradient id="core"><stop stop-color="#fff7e9"/><stop offset=".3" stop-color="#ffc07a"/><stop offset=".7" stop-color="#ff6a21"/><stop offset="1" stop-color="#b72f00"/></radialGradient>
  </defs>
  <circle cx="160" cy="154" r="112" fill="none" stroke="#ff6a21" stroke-opacity=".22"/>
  <path d="M91 86 126 56h68l35 30 20 48-8 70-35 39-46 17-46-17-35-39-8-70Z" fill="url(#shell)" stroke="#7d746a" stroke-width="1.4"/>
  <path d="M106 111q18-28 54-28t54 28l13 31-5 42q-8 35-62 44-54-9-62-44l-5-42Z" fill="url(#glass)" stroke="#050609" stroke-width="2"/>
  <rect x="116" y="137" width="88" height="34" rx="17" fill="#030406" stroke="#343942"/>
  <rect x="124" y="150" width="72" height="8" rx="4" fill="url(#signal)"/>
  <circle cx="160" cy="194" r="11" fill="url(#core)"/>
  <path d="M151 194h18M160 185v18" fill="none" stroke="#250a00" stroke-width="1.4" stroke-linecap="round"/>
  <path d="M160 42v10M160 256v10M48 154h10M262 154h10" fill="none" stroke="#8f8a82" stroke-width="1.3" stroke-linecap="round"/>
</svg>