<svg xmlns="http://www.w3.org/2000/svg" viewBox="0 0 560 280" fill="none"><path d="M18 235h524M83 236v26m401-26v26" stroke="#111319" stroke-width="5" stroke-linecap="round"/><path d="M62 184h433l-14 52H77z" fill="#ff5a1f" stroke="#111319" stroke-width="5"/><rect x="160" y="48" width="226" height="141" rx="8" fill="#f3f4f0" stroke="#111319" stroke-width="5"/><path d="M174 78h195m-195 12 39 33 44-24 41 46 51-32 21 26" stroke="#ff5a1f" stroke-width="5" stroke-linecap="round" stroke-linejoin="round"/><path d="M236 190v27m74-27v27m-95 0h116" stroke="#111319" stroke-width="5" stroke-linecap="round"/><path d="M96 167c-16-24-5-48 13-53 16-4 27 10 27 25 0 12-8 23-18 28" fill="#f3f4f0" stroke="#111319" stroke-width="4"/><path d="M447 171c8-25 15-62 11-91m-13 60c-34-16-27-42-11-48 14-5 26 4 24 18m4 28c26-13 29-36 18-45-14-11-26-2-27 10" stroke="#111319" stroke-width="4" stroke-linecap="round"/><path d="M437 166h42l-7 20h-29z" fill="#ff5a1f" stroke="#111319" stroke-width="4"/></svg>
